<svg width="125" height="100%" fill="none" viewBox="0 0 125 25" xmlns="http://www.w3.org/2000/svg" role="img" style="width: inherit; height: inherit; line-height: inherit; color: inherit;"><path d="M12.493 0H0v12.488h12.493z" fill="#ff3395"></path><path d="M12.493 12.488H0v12.488h12.493z" fill="#ff70c3"></path><path d="M125 0h-12.493v12.488H125z" fill="#6e3305"></path><path d="M25.01 12.488H12.492v12.488h12.492V12.488z" fill="#f20c1f"></path><path d="M37.502 0H25.01v12.488h12.493z" fill="#ff7830"></path><path d="M49.995 0H37.502v12.488h12.493z" fill="#ffea00"></path><path d="M62.488 12.488H49.995v12.488h12.493z" fill="#21a637"></path><path d="M75.005 0H62.512v12.488h12.493z" fill="#0b8699"></path><path d="M87.497 12.488H75.004v12.488h12.493z" fill="#0080ff"></path><path d="M112.483 0H99.99v12.488h12.493z" fill="#192024"></path><path d="M125 12.488h-12.493v12.488H125z" fill="#996023"></path><path d="M25.01 0H12.492v12.488h12.492V0z" fill="#e62600"></path><path d="M37.502 12.488H25.01v12.488h12.493z" fill="#df7800"></path><path d="M49.995 12.488H37.502v12.488h12.493z" fill="#ffc800"></path><path d="M62.488 0H49.995v12.488h12.493z" fill="#c8cf3d"></path><path d="M75.005 12.488H62.512v12.488h12.493z" fill="#009589"></path><path d="M87.497 0H75.004v12.488h12.493z" fill="#1178bf"></path><path d="M99.99 0H87.498v12.488H99.99z" fill="#462f75"></path><path d="M112.483 12.488H99.99v12.488h12.493z" fill="#595651"></path><path d="M99.99 12.488H87.498v12.488H99.99z" fill="#2e3799"></path><path clip-rule="evenodd" d="M12.279 12.536V6.993H9.375v11.989h2.904v-5.543l3.07 5.543h3.212l-3.332-5.994 3.332-5.995h-3.213zm22.796 4.733-.523 1.737h-3.094l3.95-11.989h3.689l3.926 11.989h-3.189l-.523-1.737zm2.118-6.827-1.404 4.472h2.808zm26.77 8.54H61.06v-5.28l-3.926-6.709h3.474l1.928 3.687 1.903-3.687h3.403l-3.879 6.708zm21.63-1.713-.523 1.737h-3.093l3.95-11.989h3.688l3.927 11.989h-3.189l-.523-1.737zm2.119-6.827-1.404 4.472h2.808zm24.628 2.094V6.993h-2.903v11.989h2.903v-5.543l3.07 5.543h3.213l-3.332-5.994 3.332-5.995h-3.213z" fill="#fafafc" fill-rule="evenodd"></path></svg>